# xmcd
#
# Track frame offsets: 
#        150
#        14205
#        24660
#        41775
#        55792
#        79597
#        90689
#        107316
#        121041
#        134241
#        147808
#        159553
#        172760
#        194622
#        203862
#        216364
#
# Disc length: 3097 seconds
#
# Revision: 0
# Processed by: cddbd v1.5.2PL0 Copyright (c) Steve Scherf et al.
# Submitted via: ExactAudioCopyFreeDBPlugin 1.0
#
DISCID=e10c1710
DTITLE=Eric Clapton - The Breeze - An Appreciation Of JJ Cale
DYEAR=2014
DGENRE=Blues
TTITLE0=They Call Me The Breeze
TTITLE1=Rock and roll records
TTITLE2=Someday
TTITLE3=Lies
TTITLE4=Sensitive Kind
TTITLE5=Cajun Moon
TTITLE6=Magnolia
TTITLE7=I got the same old blues
TTITLE8=Songbird
TTITLE9=Since you said goodbye
TTITLE10=I'll be there (if you ever want me)
TTITLE11=The old man and me
TTITLE12=Train to nowhere
TTITLE13=Starbound
TTITLE14=Don't wait
TTITLE15=Crying eyes
EXTD=
EXTT0=
EXTT1=
EXTT2=
EXTT3=
EXTT4=
EXTT5=
EXTT6=
EXTT7=
EXTT8=
EXTT9=
EXTT10=
EXTT11=
EXTT12=
EXTT13=
EXTT14=
EXTT15=
PLAYORDER=
